%
M48
M72
T01C0.01200
T02C0.02400
T03C0.03200
T04C0.03600
T05C0.03937
T06C0.04000
%
T01
X92150Y78500
X89900Y81500
X98150Y93500
X89150Y102500
X90650Y107750
X81650Y114500
X78650Y130250
X84650Y96500
X66650Y88250
T02
X63500Y110600
X51400Y98000
X51400Y78000
T03
X51400Y48000
X61400Y48000
X71400Y43000
X71400Y53000
X71400Y73000
X91400Y73000
X106400Y68000
X116400Y68000
X116400Y78000
X106400Y78000
X111400Y88000
X111400Y98000
X111400Y118000
X131400Y118000
X141400Y118000
X151400Y118000
X166400Y113000
X176400Y113000
X61400Y118000
X51400Y118000
X36400Y118000
X26400Y118000
X16400Y113000
X26400Y108000
X36400Y108000
X36400Y98000
X26400Y98000
X16400Y98000
X6400Y98000
X6400Y113000
X26400Y78000
X36400Y78000
T04
X11400Y53000
X41400Y53000
T05
X11400Y23000
X21400Y23000
X36400Y23000
X46400Y23000
X56400Y23000
X66400Y23000
X121400Y28000
X121400Y38000
X121400Y48000
X121400Y58000
X126400Y88000
X136400Y88000
X146400Y88000
X156400Y88000
X166400Y88000
X176400Y88000
X176400Y138000
X186400Y138000
X161400Y138000
X151400Y138000
X141400Y138000
X131400Y138000
X121400Y138000
X111400Y138000
X101400Y138000
X91400Y138000
X81400Y138000
X71400Y138000
X61400Y138000
X51400Y138000
X41400Y138000
X31400Y138000
X21400Y138000
X11400Y138000
T06
X86400Y58000
X96400Y58000
X96400Y48000
X86400Y48000
X86400Y38000
X96400Y38000
X96400Y28000
X86400Y28000
X86400Y18000
X96400Y18000
M30
