G75*
%MOIN*%
%OFA0B0*%
%FSLAX25Y25*%
%IPPOS*%
%LPD*%
%AMOC8*
5,1,8,0,0,1.08239X$1,22.5*
%
%ADD10C,0.00000*%
%ADD11C,0.00600*%
%ADD12OC8,0.06300*%
%ADD13OC8,0.07500*%
%ADD14R,0.05000X0.02200*%
%ADD15R,0.02200X0.05000*%
%ADD16OC8,0.05200*%
%ADD17C,0.04400*%
%ADD18OC8,0.07400*%
%ADD19C,0.05937*%
%ADD20C,0.00800*%
%ADD21C,0.02800*%
%ADD22C,0.01600*%
%ADD23C,0.01000*%
%ADD24C,0.04000*%
D10*
X0001400Y0008000D02*
X0001400Y0152961D01*
X0195101Y0152961D01*
X0195101Y0008000D01*
X0001400Y0008000D01*
D11*
X0147627Y0033001D02*
X0148695Y0033001D01*
X0150830Y0033001D02*
X0155100Y0033001D01*
X0155100Y0031933D02*
X0155100Y0034069D01*
X0155100Y0036230D02*
X0155100Y0039433D01*
X0154032Y0040501D01*
X0152965Y0039433D01*
X0152965Y0037298D01*
X0151897Y0036230D01*
X0150830Y0037298D01*
X0150830Y0040501D01*
X0159195Y0040507D02*
X0159195Y0038372D01*
X0160262Y0037305D01*
X0164532Y0037305D01*
X0165600Y0038372D01*
X0165600Y0040507D01*
X0164532Y0041575D01*
X0164532Y0043750D02*
X0165600Y0044818D01*
X0165600Y0046953D01*
X0164532Y0048021D01*
X0162397Y0048021D01*
X0161330Y0046953D01*
X0161330Y0044818D01*
X0162397Y0043750D01*
X0164532Y0043750D01*
X0169695Y0042663D02*
X0176100Y0042663D01*
X0176100Y0044798D02*
X0176100Y0040527D01*
X0175032Y0038352D02*
X0176100Y0037285D01*
X0176100Y0035150D01*
X0175032Y0034082D01*
X0170762Y0038352D01*
X0175032Y0038352D01*
X0171830Y0040527D02*
X0169695Y0042663D01*
X0170762Y0038352D02*
X0169695Y0037285D01*
X0169695Y0035150D01*
X0170762Y0034082D01*
X0175032Y0034082D01*
X0176100Y0031907D02*
X0176100Y0027636D01*
X0171830Y0031907D01*
X0170762Y0031907D01*
X0169695Y0030839D01*
X0169695Y0028704D01*
X0170762Y0027636D01*
X0169695Y0025461D02*
X0176100Y0021191D01*
X0176100Y0019016D02*
X0176100Y0014745D01*
X0171830Y0019016D01*
X0170762Y0019016D01*
X0169695Y0017948D01*
X0169695Y0015813D01*
X0170762Y0014745D01*
X0170762Y0012570D02*
X0169695Y0011503D01*
X0169695Y0009368D01*
X0170762Y0008300D01*
X0175032Y0008300D01*
X0170762Y0012570D01*
X0175032Y0012570D01*
X0176100Y0011503D01*
X0176100Y0009368D01*
X0175032Y0008300D01*
X0165600Y0008300D02*
X0165600Y0011503D01*
X0164532Y0012570D01*
X0163465Y0012570D01*
X0162397Y0011503D01*
X0162397Y0008300D01*
X0159195Y0008300D02*
X0159195Y0011503D01*
X0160262Y0012570D01*
X0161330Y0012570D01*
X0162397Y0011503D01*
X0161330Y0014745D02*
X0161330Y0015813D01*
X0165600Y0015813D01*
X0165600Y0014745D02*
X0165600Y0016881D01*
X0165600Y0019042D02*
X0159195Y0019042D01*
X0159195Y0015813D02*
X0158127Y0015813D01*
X0155100Y0015813D02*
X0148695Y0015813D01*
X0148695Y0014745D01*
X0149762Y0012570D02*
X0148695Y0011503D01*
X0148695Y0009368D01*
X0149762Y0008300D01*
X0154032Y0008300D01*
X0155100Y0009368D01*
X0155100Y0011503D01*
X0154032Y0012570D01*
X0155100Y0014745D02*
X0155100Y0016881D01*
X0154032Y0019042D02*
X0155100Y0020110D01*
X0155100Y0022245D01*
X0154032Y0023313D01*
X0151897Y0023313D01*
X0150830Y0022245D01*
X0150830Y0020110D01*
X0151897Y0019042D01*
X0154032Y0019042D01*
X0150830Y0025488D02*
X0155100Y0027623D01*
X0150830Y0029758D01*
X0150830Y0031933D02*
X0150830Y0033001D01*
X0159195Y0040507D02*
X0160262Y0041575D01*
X0155100Y0049121D02*
X0148695Y0049121D01*
X0148695Y0053392D01*
X0150830Y0055567D02*
X0155100Y0055567D01*
X0152965Y0055567D02*
X0150830Y0057702D01*
X0150830Y0058770D01*
X0150830Y0060938D02*
X0150830Y0062006D01*
X0155100Y0062006D01*
X0155100Y0063073D02*
X0155100Y0060938D01*
X0150830Y0065235D02*
X0150830Y0067370D01*
X0149762Y0066303D02*
X0154032Y0066303D01*
X0155100Y0067370D01*
X0155100Y0069532D02*
X0155100Y0073803D01*
X0154032Y0075978D02*
X0151897Y0075978D01*
X0150830Y0077045D01*
X0150830Y0079180D01*
X0151897Y0080248D01*
X0152965Y0080248D01*
X0152965Y0075978D01*
X0154032Y0075978D02*
X0155100Y0077045D01*
X0155100Y0079180D01*
X0155100Y0082423D02*
X0150830Y0082423D01*
X0150830Y0085626D01*
X0151897Y0086694D01*
X0155100Y0086694D01*
X0161330Y0083477D02*
X0161330Y0082410D01*
X0163465Y0080275D01*
X0165600Y0080275D02*
X0161330Y0080275D01*
X0162397Y0078100D02*
X0163465Y0078100D01*
X0163465Y0073829D01*
X0164532Y0073829D02*
X0165600Y0074897D01*
X0165600Y0077032D01*
X0162397Y0078100D02*
X0161330Y0077032D01*
X0161330Y0074897D01*
X0162397Y0073829D01*
X0164532Y0073829D01*
X0165600Y0071667D02*
X0164532Y0070600D01*
X0160262Y0070600D01*
X0161330Y0071667D02*
X0161330Y0069532D01*
X0161330Y0067357D02*
X0165600Y0067357D01*
X0165600Y0064154D01*
X0164532Y0063087D01*
X0161330Y0063087D01*
X0162397Y0060912D02*
X0164532Y0060912D01*
X0165600Y0059844D01*
X0165600Y0056641D01*
X0167735Y0056641D02*
X0161330Y0056641D01*
X0161330Y0059844D01*
X0162397Y0060912D01*
X0162397Y0054466D02*
X0165600Y0054466D01*
X0165600Y0052331D02*
X0162397Y0052331D01*
X0161330Y0053398D01*
X0162397Y0054466D01*
X0162397Y0052331D02*
X0161330Y0051263D01*
X0161330Y0050196D01*
X0165600Y0050196D01*
X0169695Y0051243D02*
X0169695Y0046973D01*
X0172897Y0046973D01*
X0171830Y0049108D01*
X0171830Y0050176D01*
X0172897Y0051243D01*
X0175032Y0051243D01*
X0176100Y0050176D01*
X0176100Y0048041D01*
X0175032Y0046973D01*
X0163465Y0028684D02*
X0162397Y0028684D01*
X0161330Y0027616D01*
X0161330Y0025481D01*
X0162397Y0024414D01*
X0164532Y0024414D01*
X0165600Y0025481D01*
X0165600Y0027616D01*
X0163465Y0028684D02*
X0163465Y0024414D01*
X0165600Y0022245D02*
X0163465Y0019042D01*
X0161330Y0022245D01*
X0159195Y0008300D02*
X0165600Y0008300D01*
X0151897Y0049121D02*
X0151897Y0051257D01*
X0148695Y0062006D02*
X0147627Y0062006D01*
X0150830Y0069532D02*
X0150830Y0073803D01*
X0155100Y0069532D01*
D12*
X0131400Y0118000D03*
X0111400Y0118000D03*
X0091400Y0073000D03*
X0071400Y0073000D03*
X0036400Y0078000D03*
X0026400Y0078000D03*
X0026400Y0098000D03*
X0036400Y0098000D03*
D13*
X0041400Y0053000D03*
X0011400Y0053000D03*
D14*
X0069500Y0091976D03*
X0069500Y0095126D03*
X0069500Y0098276D03*
X0069500Y0101425D03*
X0069500Y0104575D03*
X0069500Y0107724D03*
X0069500Y0110874D03*
X0069500Y0114024D03*
X0103300Y0114024D03*
X0103300Y0110874D03*
X0103300Y0107724D03*
X0103300Y0104575D03*
X0103300Y0101425D03*
X0103300Y0098276D03*
X0103300Y0095126D03*
X0103300Y0091976D03*
D15*
X0097424Y0086100D03*
X0094274Y0086100D03*
X0091124Y0086100D03*
X0087975Y0086100D03*
X0084825Y0086100D03*
X0081676Y0086100D03*
X0078526Y0086100D03*
X0075376Y0086100D03*
X0075376Y0119900D03*
X0078526Y0119900D03*
X0081676Y0119900D03*
X0084825Y0119900D03*
X0087975Y0119900D03*
X0091124Y0119900D03*
X0094274Y0119900D03*
X0097424Y0119900D03*
D16*
X0111400Y0098000D03*
X0111400Y0088000D03*
X0106400Y0078000D03*
X0116400Y0078000D03*
X0116400Y0068000D03*
X0106400Y0068000D03*
X0071400Y0053000D03*
X0061400Y0048000D03*
X0051400Y0048000D03*
X0071400Y0043000D03*
X0016400Y0098000D03*
X0006400Y0098000D03*
X0006400Y0113000D03*
X0016400Y0113000D03*
X0026400Y0118000D03*
X0036400Y0118000D03*
X0036400Y0108000D03*
X0026400Y0108000D03*
X0051400Y0118000D03*
X0061400Y0118000D03*
X0141400Y0118000D03*
X0151400Y0118000D03*
X0166400Y0113000D03*
X0176400Y0113000D03*
D17*
X0053600Y0098000D02*
X0049200Y0098000D01*
X0049200Y0078000D02*
X0053600Y0078000D01*
D18*
X0086400Y0058000D03*
X0096400Y0058000D03*
X0096400Y0048000D03*
X0086400Y0048000D03*
X0086400Y0038000D03*
X0096400Y0038000D03*
X0096400Y0028000D03*
X0086400Y0028000D03*
X0086400Y0018000D03*
X0096400Y0018000D03*
D19*
X0118431Y0028000D02*
X0124369Y0028000D01*
X0124369Y0038000D02*
X0118431Y0038000D01*
X0118431Y0048000D02*
X0124369Y0048000D01*
X0124369Y0058000D02*
X0118431Y0058000D01*
X0126400Y0085031D02*
X0126400Y0090969D01*
X0136400Y0090969D02*
X0136400Y0085031D01*
X0146400Y0085031D02*
X0146400Y0090969D01*
X0156400Y0090969D02*
X0156400Y0085031D01*
X0166400Y0085031D02*
X0166400Y0090969D01*
X0176400Y0090969D02*
X0176400Y0085031D01*
X0176400Y0135031D02*
X0176400Y0140969D01*
X0186400Y0140969D02*
X0186400Y0135031D01*
X0161400Y0135031D02*
X0161400Y0140969D01*
X0151400Y0140969D02*
X0151400Y0135031D01*
X0141400Y0135031D02*
X0141400Y0140969D01*
X0131400Y0140969D02*
X0131400Y0135031D01*
X0121400Y0135031D02*
X0121400Y0140969D01*
X0111400Y0140969D02*
X0111400Y0135031D01*
X0101400Y0135031D02*
X0101400Y0140969D01*
X0091400Y0140969D02*
X0091400Y0135031D01*
X0081400Y0135031D02*
X0081400Y0140969D01*
X0071400Y0140969D02*
X0071400Y0135031D01*
X0061400Y0135031D02*
X0061400Y0140969D01*
X0051400Y0140969D02*
X0051400Y0135031D01*
X0041400Y0135031D02*
X0041400Y0140969D01*
X0031400Y0140969D02*
X0031400Y0135031D01*
X0021400Y0135031D02*
X0021400Y0140969D01*
X0011400Y0140969D02*
X0011400Y0135031D01*
X0011400Y0025969D02*
X0011400Y0020031D01*
X0021400Y0020031D02*
X0021400Y0025969D01*
X0036400Y0025969D02*
X0036400Y0020031D01*
X0046400Y0020031D02*
X0046400Y0025969D01*
X0056400Y0025969D02*
X0056400Y0020031D01*
X0066400Y0020031D02*
X0066400Y0025969D01*
D20*
X0066400Y0023000D02*
X0065900Y0023000D01*
X0057650Y0031250D01*
X0057650Y0047000D01*
X0032150Y0072500D01*
X0032150Y0100250D01*
X0038150Y0106250D01*
X0041150Y0103250D01*
X0065900Y0103250D01*
X0066650Y0104000D01*
X0068900Y0104000D01*
X0069500Y0104575D01*
X0069650Y0107000D02*
X0069500Y0107724D01*
X0069650Y0107000D02*
X0072650Y0107000D01*
X0073400Y0106250D01*
X0073400Y0103250D01*
X0071900Y0101750D01*
X0069650Y0101750D01*
X0069500Y0101425D01*
X0068900Y0098750D02*
X0066650Y0098750D01*
X0065900Y0099500D01*
X0065900Y0103250D01*
X0068900Y0107000D02*
X0062150Y0107000D01*
X0055400Y0113750D01*
X0032150Y0113750D01*
X0026400Y0108000D01*
X0026150Y0107750D01*
X0026150Y0098000D01*
X0026400Y0098000D01*
X0026900Y0098000D01*
X0026900Y0078500D01*
X0026400Y0078000D01*
X0026900Y0077750D01*
X0026900Y0075500D01*
X0041150Y0061250D01*
X0041150Y0053000D01*
X0041400Y0053000D01*
X0041900Y0053000D01*
X0046400Y0048500D01*
X0050900Y0048500D01*
X0051400Y0048000D01*
X0056150Y0043250D01*
X0056150Y0023000D01*
X0056400Y0023000D01*
X0056150Y0023000D02*
X0048650Y0015500D01*
X0019400Y0015500D01*
X0011900Y0023000D01*
X0011400Y0023000D01*
X0020900Y0023000D02*
X0021400Y0023000D01*
X0036400Y0023000D01*
X0046400Y0023000D01*
X0020900Y0023000D02*
X0020900Y0044000D01*
X0011900Y0053000D01*
X0011400Y0053000D01*
X0036400Y0078000D02*
X0036650Y0078500D01*
X0050900Y0078500D01*
X0051400Y0078000D01*
X0051650Y0077750D01*
X0065150Y0091250D01*
X0065376Y0091976D01*
X0066650Y0088250D02*
X0066650Y0068000D01*
X0075650Y0059000D01*
X0075650Y0051500D01*
X0086150Y0041000D01*
X0086150Y0038000D01*
X0086400Y0038000D01*
X0086150Y0031250D02*
X0075650Y0041750D01*
X0075650Y0049250D01*
X0071900Y0053000D01*
X0071400Y0053000D01*
X0066650Y0047750D02*
X0071400Y0043000D01*
X0066650Y0047750D02*
X0061400Y0047750D01*
X0061400Y0048000D01*
X0071900Y0065000D02*
X0071900Y0072500D01*
X0071400Y0073000D01*
X0072650Y0078500D02*
X0086150Y0065000D01*
X0086150Y0058250D01*
X0086400Y0058000D01*
X0088400Y0053000D02*
X0083900Y0053000D01*
X0071900Y0065000D01*
X0089150Y0068750D02*
X0101900Y0068750D01*
X0105650Y0072500D01*
X0149900Y0072500D01*
X0161150Y0083750D01*
X0161150Y0092000D01*
X0140900Y0112250D01*
X0130400Y0112250D01*
X0122900Y0119750D01*
X0122900Y0126500D01*
X0111400Y0138000D01*
X0122900Y0145250D02*
X0126650Y0141500D01*
X0126650Y0134000D01*
X0130400Y0130250D01*
X0133400Y0130250D01*
X0140900Y0137750D01*
X0141400Y0138000D01*
X0131900Y0138500D02*
X0131400Y0138000D01*
X0131900Y0138500D02*
X0123650Y0146750D01*
X0080900Y0146750D01*
X0077150Y0143000D01*
X0077150Y0134750D01*
X0069650Y0127250D01*
X0069650Y0114500D01*
X0069500Y0114024D01*
X0069650Y0111500D02*
X0069500Y0110874D01*
X0069650Y0111500D02*
X0072650Y0111500D01*
X0073400Y0112250D01*
X0073400Y0116000D01*
X0072650Y0116750D01*
X0072650Y0124250D01*
X0078650Y0130250D01*
X0075650Y0123500D02*
X0086900Y0134750D01*
X0086900Y0142250D01*
X0089900Y0145250D01*
X0122900Y0145250D01*
X0116150Y0124250D02*
X0144650Y0095750D01*
X0148400Y0095750D01*
X0155900Y0088250D01*
X0156400Y0088000D01*
X0166400Y0088000D02*
X0166400Y0113000D01*
X0161900Y0117500D01*
X0158150Y0113750D01*
X0140150Y0113750D01*
X0136400Y0117500D01*
X0131900Y0117500D01*
X0131400Y0118000D01*
X0116150Y0119750D02*
X0116150Y0102500D01*
X0111650Y0098000D01*
X0111400Y0098000D01*
X0108650Y0095000D02*
X0111650Y0092000D01*
X0113150Y0092000D01*
X0120650Y0084500D01*
X0120650Y0077000D01*
X0117650Y0074000D01*
X0092150Y0074000D01*
X0091400Y0073250D01*
X0091400Y0073000D01*
X0089150Y0068750D02*
X0075650Y0082250D01*
X0075650Y0086000D01*
X0075376Y0086100D01*
X0072650Y0089000D02*
X0073400Y0089750D01*
X0084650Y0089750D01*
X0084650Y0096500D01*
X0084650Y0089750D02*
X0092900Y0089750D01*
X0093650Y0089000D01*
X0093650Y0086750D01*
X0094274Y0086100D01*
X0097400Y0086000D02*
X0097424Y0086100D01*
X0097400Y0086000D02*
X0097400Y0083750D01*
X0092150Y0078500D01*
X0089900Y0081500D02*
X0083900Y0081500D01*
X0082400Y0083000D01*
X0082400Y0086000D01*
X0081676Y0086100D01*
X0072650Y0089000D02*
X0072650Y0078500D01*
X0069500Y0095126D02*
X0068900Y0095750D01*
X0053900Y0095750D01*
X0051650Y0098000D01*
X0051400Y0098000D01*
X0036400Y0098000D01*
X0038150Y0106250D02*
X0036400Y0108000D01*
X0036650Y0107750D01*
X0026150Y0098000D02*
X0016400Y0098000D01*
X0006650Y0098000D02*
X0006400Y0098000D01*
X0006650Y0098000D02*
X0006650Y0113000D01*
X0006400Y0113000D01*
X0016400Y0113000D02*
X0016400Y0133250D01*
X0020900Y0137750D01*
X0021400Y0138000D01*
X0031400Y0138000D02*
X0031400Y0118250D01*
X0026900Y0118250D01*
X0026400Y0118000D01*
X0031400Y0118250D02*
X0035900Y0118250D01*
X0036400Y0118000D01*
X0055400Y0113750D02*
X0055400Y0134000D01*
X0051400Y0138000D01*
X0075650Y0123500D02*
X0075650Y0120500D01*
X0075376Y0119900D01*
X0078526Y0119900D02*
X0078650Y0119750D01*
X0078650Y0109250D01*
X0098150Y0089750D01*
X0104150Y0089750D01*
X0116150Y0077750D01*
X0116400Y0078000D01*
X0106400Y0068000D02*
X0116150Y0058250D01*
X0121400Y0058250D01*
X0121400Y0058000D01*
X0106400Y0068000D02*
X0096400Y0058000D01*
X0088400Y0053000D02*
X0092900Y0048500D01*
X0095900Y0048500D01*
X0096400Y0048000D01*
X0096650Y0047750D01*
X0096650Y0038000D01*
X0096400Y0038000D01*
X0096650Y0038000D02*
X0096650Y0028250D01*
X0096400Y0028000D01*
X0096650Y0027500D01*
X0096650Y0018500D01*
X0096400Y0018000D01*
X0096650Y0028250D02*
X0121400Y0028250D01*
X0121400Y0028000D01*
X0086400Y0028000D02*
X0086150Y0028250D01*
X0086150Y0031250D01*
X0099650Y0092000D02*
X0098150Y0093500D01*
X0099650Y0092000D02*
X0102650Y0092000D01*
X0103300Y0091976D01*
X0103400Y0095000D02*
X0103300Y0095126D01*
X0103400Y0095000D02*
X0108650Y0095000D01*
X0105650Y0101750D02*
X0103400Y0101750D01*
X0103300Y0101425D01*
X0105650Y0101750D02*
X0110900Y0107000D01*
X0110900Y0117500D01*
X0111400Y0118000D01*
X0107150Y0120500D02*
X0109400Y0122750D01*
X0113150Y0122750D01*
X0116150Y0119750D01*
X0116150Y0124250D02*
X0083900Y0124250D01*
X0082400Y0122750D01*
X0082400Y0120500D01*
X0081676Y0119900D01*
X0084650Y0119750D02*
X0084825Y0119900D01*
X0084650Y0119750D02*
X0084650Y0117500D01*
X0081650Y0114500D01*
X0090650Y0107750D02*
X0093650Y0110750D01*
X0093650Y0119750D01*
X0094274Y0119900D01*
X0100400Y0113750D02*
X0089150Y0102500D01*
X0103300Y0104575D02*
X0103400Y0104750D01*
X0105650Y0104750D01*
X0107150Y0106250D01*
X0107150Y0120500D01*
X0103300Y0114024D02*
X0102650Y0113750D01*
X0100400Y0113750D01*
X0069500Y0098276D02*
X0068900Y0098750D01*
X0151400Y0118000D02*
X0151400Y0138000D01*
X0161400Y0138000D02*
X0161900Y0137750D01*
X0161900Y0117500D01*
X0176400Y0113000D02*
X0176900Y0113000D01*
X0176900Y0137750D01*
X0176400Y0138000D01*
D21*
X0098150Y0093500D03*
X0089150Y0102500D03*
X0090650Y0107750D03*
X0081650Y0114500D03*
X0078650Y0130250D03*
X0084650Y0096500D03*
X0089900Y0081500D03*
X0092150Y0078500D03*
X0066650Y0088250D03*
D22*
X0065376Y0091976D02*
X0069500Y0091976D01*
D23*
X0068900Y0107000D02*
X0069500Y0107724D01*
X0066200Y0113300D02*
X0063500Y0110600D01*
X0066200Y0113300D02*
X0068900Y0113300D01*
X0069500Y0114024D01*
X0075376Y0119900D02*
X0075200Y0120500D01*
X0061700Y0117800D02*
X0061400Y0118000D01*
D24*
X0063500Y0110600D03*
M02*
