G75*
%MOIN*%
%OFA0B0*%
%FSLAX25Y25*%
%IPPOS*%
%LPD*%
%AMOC8*
5,1,8,0,0,1.08239X$1,22.5*
%
%ADD10C,0.00000*%
%ADD11C,0.00600*%
%ADD12OC8,0.06300*%
%ADD13OC8,0.07500*%
%ADD14OC8,0.05200*%
%ADD15C,0.04400*%
%ADD16OC8,0.07400*%
%ADD17C,0.05937*%
%ADD18C,0.00800*%
%ADD19C,0.02800*%
%ADD20C,0.04000*%
D10*
X0001400Y0008000D02*
X0001400Y0152961D01*
X0195101Y0152961D01*
X0195101Y0008000D01*
X0001400Y0008000D01*
D11*
X0146700Y0009368D02*
X0147768Y0008300D01*
X0152038Y0012570D01*
X0147768Y0012570D01*
X0146700Y0011503D01*
X0146700Y0009368D01*
X0147768Y0008300D02*
X0152038Y0008300D01*
X0153105Y0009368D01*
X0153105Y0011503D01*
X0152038Y0012570D01*
X0152038Y0014745D02*
X0153105Y0015813D01*
X0153105Y0017948D01*
X0152038Y0019016D01*
X0150970Y0019016D01*
X0146700Y0014745D01*
X0146700Y0019016D01*
X0146700Y0021191D02*
X0153105Y0025461D01*
X0152038Y0027636D02*
X0153105Y0028704D01*
X0153105Y0030839D01*
X0152038Y0031907D01*
X0150970Y0031907D01*
X0146700Y0027636D01*
X0146700Y0031907D01*
X0147768Y0034082D02*
X0152038Y0038352D01*
X0147768Y0038352D01*
X0146700Y0037285D01*
X0146700Y0035150D01*
X0147768Y0034082D01*
X0152038Y0034082D01*
X0153105Y0035150D01*
X0153105Y0037285D01*
X0152038Y0038352D01*
X0150970Y0040527D02*
X0153105Y0042663D01*
X0146700Y0042663D01*
X0146700Y0044798D02*
X0146700Y0040527D01*
X0147768Y0046973D02*
X0146700Y0048041D01*
X0146700Y0050176D01*
X0147768Y0051243D01*
X0149903Y0051243D01*
X0150970Y0050176D01*
X0150970Y0049108D01*
X0149903Y0046973D01*
X0153105Y0046973D01*
X0153105Y0051243D01*
X0157200Y0050196D02*
X0161470Y0050196D01*
X0161470Y0051263D01*
X0160403Y0052331D01*
X0161470Y0053398D01*
X0160403Y0054466D01*
X0157200Y0054466D01*
X0157200Y0056641D02*
X0157200Y0059844D01*
X0158268Y0060912D01*
X0160403Y0060912D01*
X0161470Y0059844D01*
X0161470Y0056641D01*
X0155065Y0056641D01*
X0157200Y0052331D02*
X0160403Y0052331D01*
X0160403Y0048021D02*
X0158268Y0048021D01*
X0157200Y0046953D01*
X0157200Y0044818D01*
X0158268Y0043750D01*
X0160403Y0043750D01*
X0161470Y0044818D01*
X0161470Y0046953D01*
X0160403Y0048021D01*
X0162538Y0041575D02*
X0163605Y0040507D01*
X0163605Y0038372D01*
X0162538Y0037305D01*
X0158268Y0037305D01*
X0157200Y0038372D01*
X0157200Y0040507D01*
X0158268Y0041575D01*
X0167700Y0039433D02*
X0167700Y0036230D01*
X0167700Y0034069D02*
X0167700Y0031933D01*
X0167700Y0033001D02*
X0171970Y0033001D01*
X0171970Y0031933D01*
X0174105Y0033001D02*
X0175173Y0033001D01*
X0171970Y0029758D02*
X0167700Y0027623D01*
X0171970Y0025488D01*
X0170903Y0023313D02*
X0168768Y0023313D01*
X0167700Y0022245D01*
X0167700Y0020110D01*
X0168768Y0019042D01*
X0170903Y0019042D01*
X0171970Y0020110D01*
X0171970Y0022245D01*
X0170903Y0023313D01*
X0167700Y0016881D02*
X0167700Y0014745D01*
X0167700Y0015813D02*
X0174105Y0015813D01*
X0174105Y0014745D01*
X0173038Y0012570D02*
X0174105Y0011503D01*
X0174105Y0009368D01*
X0173038Y0008300D01*
X0168768Y0008300D01*
X0167700Y0009368D01*
X0167700Y0011503D01*
X0168768Y0012570D01*
X0164673Y0015813D02*
X0163605Y0015813D01*
X0161470Y0015813D02*
X0157200Y0015813D01*
X0157200Y0014745D02*
X0157200Y0016881D01*
X0157200Y0019042D02*
X0163605Y0019042D01*
X0161470Y0022245D02*
X0159335Y0019042D01*
X0157200Y0022245D01*
X0158268Y0024414D02*
X0160403Y0024414D01*
X0161470Y0025481D01*
X0161470Y0027616D01*
X0160403Y0028684D01*
X0159335Y0028684D01*
X0159335Y0024414D01*
X0158268Y0024414D02*
X0157200Y0025481D01*
X0157200Y0027616D01*
X0169835Y0037298D02*
X0170903Y0036230D01*
X0171970Y0037298D01*
X0171970Y0040501D01*
X0169835Y0039433D02*
X0169835Y0037298D01*
X0169835Y0039433D02*
X0168768Y0040501D01*
X0167700Y0039433D01*
X0167700Y0049121D02*
X0174105Y0049121D01*
X0174105Y0053392D01*
X0171970Y0055567D02*
X0167700Y0055567D01*
X0169835Y0055567D02*
X0171970Y0057702D01*
X0171970Y0058770D01*
X0171970Y0060938D02*
X0171970Y0062006D01*
X0167700Y0062006D01*
X0167700Y0063073D02*
X0167700Y0060938D01*
X0171970Y0065235D02*
X0171970Y0067370D01*
X0173038Y0066303D02*
X0168768Y0066303D01*
X0167700Y0067370D01*
X0167700Y0069532D02*
X0167700Y0073803D01*
X0168768Y0075978D02*
X0170903Y0075978D01*
X0171970Y0077045D01*
X0171970Y0079180D01*
X0170903Y0080248D01*
X0169835Y0080248D01*
X0169835Y0075978D01*
X0168768Y0075978D02*
X0167700Y0077045D01*
X0167700Y0079180D01*
X0167700Y0082423D02*
X0171970Y0082423D01*
X0171970Y0085626D01*
X0170903Y0086694D01*
X0167700Y0086694D01*
X0161470Y0083477D02*
X0161470Y0082410D01*
X0159335Y0080275D01*
X0157200Y0080275D02*
X0161470Y0080275D01*
X0160403Y0078100D02*
X0159335Y0078100D01*
X0159335Y0073829D01*
X0158268Y0073829D02*
X0160403Y0073829D01*
X0161470Y0074897D01*
X0161470Y0077032D01*
X0160403Y0078100D01*
X0157200Y0077032D02*
X0157200Y0074897D01*
X0158268Y0073829D01*
X0157200Y0071667D02*
X0158268Y0070600D01*
X0162538Y0070600D01*
X0161470Y0071667D02*
X0161470Y0069532D01*
X0161470Y0067357D02*
X0157200Y0067357D01*
X0157200Y0064154D01*
X0158268Y0063087D01*
X0161470Y0063087D01*
X0167700Y0069532D02*
X0171970Y0073803D01*
X0171970Y0069532D01*
X0174105Y0062006D02*
X0175173Y0062006D01*
X0170903Y0051257D02*
X0170903Y0049121D01*
X0161470Y0015813D02*
X0161470Y0014745D01*
X0161470Y0012570D02*
X0160403Y0011503D01*
X0160403Y0008300D01*
X0163605Y0008300D02*
X0157200Y0008300D01*
X0157200Y0011503D01*
X0158268Y0012570D01*
X0159335Y0012570D01*
X0160403Y0011503D01*
X0161470Y0012570D02*
X0162538Y0012570D01*
X0163605Y0011503D01*
X0163605Y0008300D01*
D12*
X0091400Y0073000D03*
X0071400Y0073000D03*
X0036400Y0078000D03*
X0026400Y0078000D03*
X0026400Y0098000D03*
X0036400Y0098000D03*
X0111400Y0118000D03*
X0131400Y0118000D03*
D13*
X0041400Y0053000D03*
X0011400Y0053000D03*
D14*
X0051400Y0048000D03*
X0061400Y0048000D03*
X0071400Y0043000D03*
X0071400Y0053000D03*
X0106400Y0068000D03*
X0116400Y0068000D03*
X0116400Y0078000D03*
X0106400Y0078000D03*
X0111400Y0088000D03*
X0111400Y0098000D03*
X0141400Y0118000D03*
X0151400Y0118000D03*
X0166400Y0113000D03*
X0176400Y0113000D03*
X0061400Y0118000D03*
X0051400Y0118000D03*
X0036400Y0118000D03*
X0026400Y0118000D03*
X0016400Y0113000D03*
X0026400Y0108000D03*
X0036400Y0108000D03*
X0016400Y0098000D03*
X0006400Y0098000D03*
X0006400Y0113000D03*
D15*
X0049200Y0098000D02*
X0053600Y0098000D01*
X0053600Y0078000D02*
X0049200Y0078000D01*
D16*
X0086400Y0058000D03*
X0096400Y0058000D03*
X0096400Y0048000D03*
X0086400Y0048000D03*
X0086400Y0038000D03*
X0096400Y0038000D03*
X0096400Y0028000D03*
X0086400Y0028000D03*
X0086400Y0018000D03*
X0096400Y0018000D03*
D17*
X0118431Y0028000D02*
X0124369Y0028000D01*
X0124369Y0038000D02*
X0118431Y0038000D01*
X0118431Y0048000D02*
X0124369Y0048000D01*
X0124369Y0058000D02*
X0118431Y0058000D01*
X0126400Y0085031D02*
X0126400Y0090969D01*
X0136400Y0090969D02*
X0136400Y0085031D01*
X0146400Y0085031D02*
X0146400Y0090969D01*
X0156400Y0090969D02*
X0156400Y0085031D01*
X0166400Y0085031D02*
X0166400Y0090969D01*
X0176400Y0090969D02*
X0176400Y0085031D01*
X0176400Y0135031D02*
X0176400Y0140969D01*
X0186400Y0140969D02*
X0186400Y0135031D01*
X0161400Y0135031D02*
X0161400Y0140969D01*
X0151400Y0140969D02*
X0151400Y0135031D01*
X0141400Y0135031D02*
X0141400Y0140969D01*
X0131400Y0140969D02*
X0131400Y0135031D01*
X0121400Y0135031D02*
X0121400Y0140969D01*
X0111400Y0140969D02*
X0111400Y0135031D01*
X0101400Y0135031D02*
X0101400Y0140969D01*
X0091400Y0140969D02*
X0091400Y0135031D01*
X0081400Y0135031D02*
X0081400Y0140969D01*
X0071400Y0140969D02*
X0071400Y0135031D01*
X0061400Y0135031D02*
X0061400Y0140969D01*
X0051400Y0140969D02*
X0051400Y0135031D01*
X0041400Y0135031D02*
X0041400Y0140969D01*
X0031400Y0140969D02*
X0031400Y0135031D01*
X0021400Y0135031D02*
X0021400Y0140969D01*
X0011400Y0140969D02*
X0011400Y0135031D01*
X0011400Y0025969D02*
X0011400Y0020031D01*
X0021400Y0020031D02*
X0021400Y0025969D01*
X0036400Y0025969D02*
X0036400Y0020031D01*
X0046400Y0020031D02*
X0046400Y0025969D01*
X0056400Y0025969D02*
X0056400Y0020031D01*
X0066400Y0020031D02*
X0066400Y0025969D01*
D18*
X0066400Y0023000D02*
X0066650Y0023000D01*
X0066650Y0029750D01*
X0080900Y0044000D01*
X0080900Y0050000D01*
X0083900Y0053000D01*
X0091400Y0053000D01*
X0096400Y0058000D01*
X0095900Y0058250D01*
X0091400Y0062750D01*
X0091400Y0073000D01*
X0090650Y0078500D02*
X0077150Y0065000D01*
X0077150Y0042500D01*
X0062150Y0027500D01*
X0059150Y0030500D01*
X0026900Y0030500D01*
X0005900Y0051500D01*
X0005900Y0054500D01*
X0010400Y0059000D01*
X0010400Y0114500D01*
X0006650Y0118250D01*
X0006650Y0142250D01*
X0009650Y0145250D01*
X0032900Y0145250D01*
X0039650Y0138500D01*
X0041150Y0138500D01*
X0041400Y0138000D01*
X0047150Y0133250D02*
X0052400Y0128000D01*
X0071900Y0128000D01*
X0084650Y0115250D01*
X0084650Y0096500D01*
X0089150Y0097250D02*
X0050150Y0058250D01*
X0017150Y0058250D01*
X0011900Y0053000D01*
X0011400Y0053000D01*
X0051400Y0048000D02*
X0051650Y0048500D01*
X0071150Y0068000D01*
X0071150Y0072500D01*
X0071400Y0073000D01*
X0072650Y0068000D02*
X0072650Y0053750D01*
X0071900Y0053000D01*
X0071400Y0053000D01*
X0072650Y0068000D02*
X0098150Y0093500D01*
X0102650Y0092750D02*
X0102650Y0076250D01*
X0107150Y0071750D01*
X0112400Y0071750D01*
X0116150Y0068000D01*
X0116400Y0068000D01*
X0116150Y0068000D02*
X0113900Y0065750D01*
X0113900Y0056000D01*
X0121400Y0048500D01*
X0121400Y0048000D01*
X0116900Y0043250D02*
X0140900Y0043250D01*
X0180650Y0083000D01*
X0180650Y0109250D01*
X0176900Y0113000D01*
X0176400Y0113000D01*
X0161150Y0102500D02*
X0150650Y0092000D01*
X0150650Y0083000D01*
X0125900Y0058250D01*
X0121400Y0058250D01*
X0121400Y0058000D01*
X0113900Y0047750D02*
X0113900Y0046250D01*
X0116900Y0043250D01*
X0113900Y0047750D02*
X0099650Y0062000D01*
X0099650Y0080750D01*
X0095900Y0084500D01*
X0094400Y0084500D01*
X0091400Y0081500D01*
X0089900Y0081500D01*
X0090650Y0078500D02*
X0092150Y0078500D01*
X0106400Y0078000D02*
X0106400Y0083000D01*
X0111400Y0088000D01*
X0119150Y0095750D01*
X0138650Y0095750D01*
X0146400Y0088000D01*
X0161150Y0102500D02*
X0155900Y0107750D01*
X0185900Y0137750D01*
X0186400Y0138000D01*
X0155900Y0107750D02*
X0146150Y0117500D01*
X0141650Y0117500D01*
X0141400Y0118000D01*
X0131400Y0118000D02*
X0131150Y0117500D01*
X0111650Y0098000D01*
X0111400Y0098000D01*
X0104150Y0098000D01*
X0071900Y0130250D01*
X0059150Y0130250D01*
X0051400Y0138000D01*
X0047150Y0133250D02*
X0047150Y0143000D01*
X0049400Y0145250D01*
X0053150Y0145250D01*
X0059900Y0138500D01*
X0061400Y0138500D01*
X0061400Y0138000D01*
X0078650Y0130250D02*
X0102650Y0130250D01*
X0107150Y0134750D01*
X0107150Y0143000D01*
X0109400Y0145250D01*
X0114650Y0145250D01*
X0121400Y0138500D01*
X0121400Y0138000D01*
X0090650Y0107750D02*
X0090650Y0104750D01*
X0102650Y0092750D01*
X0089150Y0097250D02*
X0089150Y0102500D01*
X0081650Y0114500D02*
X0070400Y0114500D01*
X0066650Y0110750D01*
X0066650Y0088250D01*
X0047150Y0108500D02*
X0036650Y0108500D01*
X0036400Y0108000D01*
X0035900Y0107750D01*
X0032150Y0104000D01*
X0024650Y0104000D01*
X0022400Y0106250D01*
X0022400Y0107000D01*
X0016400Y0113000D01*
X0026150Y0108500D02*
X0026400Y0108000D01*
X0026150Y0108500D02*
X0011900Y0122750D01*
X0011900Y0137750D01*
X0011400Y0138000D01*
X0047150Y0108500D02*
X0056150Y0117500D01*
X0061400Y0117500D01*
X0061400Y0118000D01*
X0062900Y0122000D02*
X0055400Y0122000D01*
X0051400Y0118000D01*
X0062900Y0122000D02*
X0070400Y0114500D01*
X0161150Y0102500D02*
X0176150Y0087500D01*
X0176400Y0088000D01*
X0086400Y0018000D02*
X0083900Y0015500D01*
X0065150Y0015500D01*
X0062150Y0018500D01*
X0062150Y0027500D01*
D19*
X0092150Y0078500D03*
X0089900Y0081500D03*
X0098150Y0093500D03*
X0089150Y0102500D03*
X0090650Y0107750D03*
X0081650Y0114500D03*
X0078650Y0130250D03*
X0084650Y0096500D03*
X0066650Y0088250D03*
D20*
X0063500Y0110600D03*
M02*
